<svg width="24" height="24" viewBox="0 0 24 24" fill="none" xmlns="http://www.w3.org/2000/svg">
<path d="M3.75 11C3.19772 11 2.75 11.4477 2.75 12C2.75 12.5523 3.19772 13 3.75 13V11ZM21 12L21.7071 12.7071C22.0976 12.3166 22.0976 11.6834 21.7071 11.2929L21 12ZM14.9571 4.54289C14.5666 4.15237 13.9334 4.15237 13.5429 4.54289C13.1524 4.93342 13.1524 5.56658 13.5429 5.95711L14.9571 4.54289ZM13.5429 18.0429C13.1524 18.4334 13.1524 19.0666 13.5429 19.4571C13.9334 19.8476 14.5666 19.8476 14.9571 19.4571L13.5429 18.0429ZM3.75 13H21V11H3.75V13ZM21.7071 11.2929L14.9571 4.54289L13.5429 5.95711L20.2929 12.7071L21.7071 11.2929ZM20.2929 11.2929L13.5429 18.0429L14.9571 19.4571L21.7071 12.7071L20.2929 11.2929Z" />
</svg>
